<?xml version="1.0" standalone="no"?>
<!DOCTYPE svg PUBLIC "-//W3C//DTD SVG 20010904//EN"
 "http://www.w3.org/TR/2001/REC-SVG-20010904/DTD/svg10.dtd">
<svg version="1.0" xmlns="http://www.w3.org/2000/svg"
 width="512.000000pt" height="512.000000pt" viewBox="0 0 512.000000 512.000000"
 preserveAspectRatio="xMidYMid meet">

<g transform="translate(0.000000,512.000000) scale(0.100000,-0.100000)"
fill="#000000" stroke="none">
<path d="M1298 5104 c-184 -44 -325 -186 -372 -375 -20 -80 -20 -135 -1 -217
31 -133 124 -259 238 -326 329 -191 747 52 747 434 0 139 -47 250 -149 350
-129 127 -295 175 -463 134z"/>
<path d="M3590 5104 c-91 -24 -161 -65 -231 -134 -101 -99 -149 -213 -149
-352 0 -327 316 -567 631 -480 252 70 414 336 355 585 -65 276 -343 451 -606
381z"/>
<path d="M965 4008 c-51 -18 -85 -48 -109 -96 -13 -26 -184 -438 -381 -917
-348 -846 -357 -871 -352 -922 6 -59 30 -99 84 -141 31 -23 46 -27 103 -27 57
0 73 4 107 28 22 15 51 49 65 75 14 26 90 205 169 399 l144 352 3 -60 c3 -55
-13 -112 -177 -625 -100 -310 -183 -588 -187 -616 -17 -159 110 -296 290 -313
l75 -7 3 -467 3 -466 30 -60 c98 -196 358 -191 451 10 l24 50 0 468 0 467 100
0 99 0 3 -473 c3 -523 2 -514 71 -585 53 -56 102 -76 182 -76 110 0 197 59
235 161 19 51 20 79 20 512 l0 459 76 7 c129 12 215 64 264 162 20 39 25 63
25 128 0 76 -8 106 -183 649 -171 530 -183 572 -180 633 l3 65 159 -387 c88
-213 169 -401 180 -418 37 -53 96 -77 195 -77 101 0 154 20 194 71 15 19 98
207 184 418 l158 384 5 -1294 5 -1294 21 -40 c51 -94 125 -139 229 -139 82 0
134 22 185 80 68 79 65 32 68 839 1 548 5 736 14 753 23 45 83 63 132 41 57
-26 56 -13 56 -791 0 -797 -2 -773 69 -846 127 -130 327 -98 408 66 l28 57 5
1277 5 1277 144 -352 c79 -194 155 -373 169 -399 14 -26 43 -60 65 -75 34 -24
50 -28 107 -28 57 0 72 4 103 27 54 42 78 82 84 141 5 51 -4 76 -352 922 -197
479 -368 891 -381 917 -15 30 -40 58 -66 75 l-42 28 -435 3 -436 3 -44 -23
c-25 -13 -57 -39 -72 -58 -14 -19 -156 -351 -315 -738 -158 -386 -291 -699
-295 -695 -4 5 -136 321 -293 703 -158 382 -297 711 -310 731 -14 21 -44 46
-68 58 -43 20 -56 21 -469 20 -272 0 -435 -4 -454 -11z"/>
</g>
</svg>
