<?xml version="1.0" standalone="no"?>
<!DOCTYPE svg PUBLIC "-//W3C//DTD SVG 20010904//EN"
 "http://www.w3.org/TR/2001/REC-SVG-20010904/DTD/svg10.dtd">
<svg version="1.0" xmlns="http://www.w3.org/2000/svg"
 width="512.000000pt" height="512.000000pt" viewBox="0 0 512.000000 512.000000"
 preserveAspectRatio="xMidYMid meet">

<g transform="translate(0.000000,512.000000) scale(0.100000,-0.100000)"
fill="#000000" stroke="none">
<path d="M3217 5109 c-108 -26 -211 -112 -261 -219 l-31 -65 -3 -317 -3 -318
150 0 151 0 0 286 0 286 29 29 29 29 292 0 292 0 29 -29 29 -29 0 -286 0 -286
151 0 150 0 -3 318 -3 317 -31 65 c-39 83 -111 155 -194 194 l-65 31 -335 2
c-184 1 -352 -3 -373 -8z"/>
<path d="M2243 3869 c-71 -27 -155 -106 -190 -177 l-28 -57 0 -1535 0 -1535
26 -55 c46 -99 122 -165 222 -195 l42 -12 5 -99 c6 -116 20 -149 78 -182 49
-27 91 -28 142 -2 60 31 80 78 80 190 l0 90 950 0 950 0 0 -90 c0 -110 18
-154 78 -188 49 -27 91 -28 142 -2 58 29 74 67 80 184 l5 99 42 12 c100 30
176 96 222 195 l26 55 3 1510 c2 1645 5 1563 -53 1655 -35 55 -110 117 -171
140 -54 20 -72 20 -1327 19 -1251 0 -1273 0 -1324 -20z m608 -402 c74 -49 69
56 69 -1370 0 -1261 0 -1278 -20 -1317 -23 -45 -80 -80 -131 -80 -46 0 -108
39 -130 82 -18 36 -19 80 -19 1315 0 1197 1 1280 18 1313 25 50 75 80 132 80
32 0 58 -7 81 -23z m1600 0 c74 -49 69 56 69 -1370 0 -1261 0 -1278 -20 -1317
-23 -45 -80 -80 -131 -80 -46 0 -108 39 -130 82 -18 36 -19 80 -19 1315 0
1197 1 1280 18 1313 25 50 75 80 132 80 32 0 58 -7 81 -23z"/>
<path d="M1346 3795 c-72 -29 -119 -66 -168 -131 -61 -79 -70 -118 -76 -301
l-4 -163 151 0 151 0 0 125 c0 131 11 176 45 189 9 3 74 6 144 6 l128 0 6 73
c6 64 27 150 52 210 7 16 -6 17 -181 17 -177 0 -193 -2 -248 -25z"/>
<path d="M267 2889 c-97 -23 -190 -101 -235 -197 l-27 -57 0 -1035 0 -1035 26
-55 c46 -99 122 -165 222 -195 l42 -12 5 -99 c6 -116 20 -149 78 -182 49 -27
91 -28 142 -2 60 31 80 78 80 190 l0 90 610 0 609 0 -35 73 c-66 140 -64 90
-64 1370 l0 1157 -707 -1 c-390 -1 -725 -5 -746 -10z m548 -409 c26 -13 49
-34 63 -59 l22 -39 0 -781 c0 -764 0 -783 -20 -821 -23 -45 -80 -80 -131 -80
-46 0 -108 39 -130 82 -18 36 -19 71 -19 819 l0 781 22 39 c23 41 84 79 127
79 14 0 43 -9 66 -20z"/>
</g>
</svg>
