<?xml version="1.0" standalone="no"?>
<!DOCTYPE svg PUBLIC "-//W3C//DTD SVG 20010904//EN"
 "http://www.w3.org/TR/2001/REC-SVG-20010904/DTD/svg10.dtd">
<svg version="1.0" xmlns="http://www.w3.org/2000/svg"
 width="512.000000pt" height="512.000000pt" viewBox="0 0 512.000000 512.000000"
 preserveAspectRatio="xMidYMid meet">

<g transform="translate(0.000000,512.000000) scale(0.100000,-0.100000)"
fill="#000000" stroke="none">
<path d="M4910 4345 c-182 -40 -361 -181 -440 -346 -68 -143 -70 -156 -70
-768 0 -398 3 -555 12 -585 23 -78 135 -166 212 -166 15 0 16 -62 16 -736 0
-549 3 -747 12 -778 16 -55 99 -138 154 -154 96 -28 182 -4 247 68 24 26 49
66 55 88 9 30 12 444 12 1690 0 1585 -1 1651 -18 1672 -24 30 -101 35 -192 15z"/>
<path d="M25 4295 l-25 -24 0 -498 c0 -419 2 -508 16 -558 26 -101 93 -196
181 -256 l43 -30 0 -961 c0 -725 3 -971 12 -1002 16 -55 99 -138 154 -154 96
-28 182 -4 247 68 24 26 49 66 55 88 9 29 12 287 12 1000 l0 961 43 30 c88 60
155 155 181 256 14 50 16 139 16 558 l0 498 -25 24 c-32 33 -78 33 -110 0
l-25 -24 0 -416 0 -415 -120 0 -120 0 0 415 0 416 -25 24 c-15 16 -36 25 -55
25 -19 0 -40 -9 -55 -25 l-25 -24 0 -416 0 -415 -120 0 -120 0 0 415 0 416
-25 24 c-15 16 -36 25 -55 25 -19 0 -40 -9 -55 -25z"/>
<path d="M2490 4074 c-272 -34 -511 -122 -724 -267 -118 -80 -303 -265 -382
-382 -274 -403 -344 -894 -192 -1349 78 -235 214 -445 402 -623 212 -201 467
-330 771 -390 139 -27 435 -25 575 6 144 31 236 62 365 126 431 211 723 588
827 1069 32 146 32 446 0 592 -44 206 -118 382 -233 555 -76 114 -279 321
-389 396 -258 175 -526 261 -835 268 -82 2 -166 1 -185 -1z m290 -429 c149
-46 206 -51 365 -30 150 19 218 15 292 -21 95 -46 146 -128 183 -294 40 -184
59 -227 168 -370 94 -124 127 -198 127 -285 0 -106 -24 -145 -191 -310 -134
-133 -143 -144 -173 -220 -88 -217 -133 -285 -225 -333 -43 -22 -64 -26 -133
-27 -46 0 -83 -2 -83 -5 0 -3 9 -30 21 -60 30 -79 24 -211 -13 -292 -73 -158
-259 -259 -421 -229 -136 25 -115 8 -724 615 -607 605 -610 608 -634 737 -54
292 239 542 521 445 l37 -13 37 45 c20 25 68 73 106 107 94 82 140 145 180
246 86 218 145 289 270 330 49 17 172 2 290 -36z"/>
<path d="M2503 3511 c-43 -27 -77 -80 -114 -176 -62 -160 -94 -209 -211 -318
-59 -56 -117 -115 -129 -131 l-21 -28 432 -433 433 -433 116 -38 c82 -27 135
-38 180 -38 63 -1 63 -1 105 45 25 28 54 77 75 130 77 189 94 215 235 354 73
72 138 145 145 163 24 59 -6 128 -124 277 -80 102 -108 165 -150 341 -33 137
-41 161 -70 193 l-33 36 -99 -2 c-54 0 -165 -3 -248 -5 l-150 -3 -110 38
c-137 48 -217 57 -262 28z m541 -429 c91 -42 149 -100 194 -190 35 -72 37 -81
37 -172 0 -91 -2 -100 -37 -172 -45 -91 -103 -147 -196 -191 -61 -29 -76 -32
-162 -32 -86 0 -101 3 -162 32 -93 44 -151 100 -196 191 -35 72 -37 81 -37
171 0 87 3 102 32 163 40 85 97 147 172 186 78 42 122 52 213 48 61 -3 92 -11
142 -34z"/>
<path d="M2800 2947 c-49 -16 -133 -102 -148 -153 -28 -94 -8 -169 63 -239
102 -103 243 -101 338 5 90 100 90 220 0 320 -65 72 -158 97 -253 67z"/>
<path d="M1670 2821 c-71 -23 -122 -66 -156 -131 -26 -51 -25 -153 3 -205 12
-22 102 -120 201 -219 144 -143 181 -175 185 -160 3 11 23 142 43 291 l38 273
-54 56 c-30 30 -72 65 -94 76 -43 22 -127 32 -166 19z"/>
<path d="M2083 2233 l-41 -288 151 -152 c84 -84 154 -153 157 -153 3 0 24 129
47 288 l41 287 -151 153 c-84 83 -154 152 -157 152 -3 0 -24 -129 -47 -287z"/>
<path d="M2577 2054 c-3 -11 -23 -142 -43 -291 l-38 -273 54 -56 c91 -92 166
-118 262 -90 64 19 121 64 150 119 30 58 31 156 1 212 -12 22 -102 120 -201
219 -144 143 -181 175 -185 160z"/>
</g>
</svg>
