<?xml version="1.0" standalone="no"?>
<!DOCTYPE svg PUBLIC "-//W3C//DTD SVG 20010904//EN"
 "http://www.w3.org/TR/2001/REC-SVG-20010904/DTD/svg10.dtd">
<svg version="1.0" xmlns="http://www.w3.org/2000/svg"
 width="512.000000pt" height="512.000000pt" viewBox="0 0 512.000000 512.000000"
 preserveAspectRatio="xMidYMid meet">

<g transform="translate(0.000000,512.000000) scale(0.100000,-0.100000)"
fill="#000000" stroke="none">
<path d="M1481 4104 c-131 -35 -153 -56 -496 -459 l-239 -280 -215 -5 c-211
-5 -217 -6 -277 -33 -77 -36 -145 -104 -181 -182 l-28 -60 -3 -278 c-2 -175 1
-298 8 -331 44 -213 225 -356 451 -356 l66 0 -4 88 c-20 362 274 672 637 672
363 0 657 -310 637 -672 l-4 -88 807 0 807 0 -4 88 c-20 362 274 672 637 672
364 0 657 -310 637 -674 l-5 -89 50 6 c118 14 233 100 285 211 l28 61 0 265 0
265 -26 55 c-37 77 -87 131 -156 168 -53 28 -113 41 -556 122 l-497 90 -408
338 c-224 186 -427 350 -452 365 -97 56 -107 57 -805 56 -526 0 -650 -3 -694
-15z m281 -232 l33 -32 0 -205 0 -205 -33 -32 -32 -33 -300 -3 c-290 -3 -300
-2 -320 18 -11 11 -20 29 -20 40 0 22 345 433 393 468 30 22 40 23 139 20 106
-3 108 -3 140 -36z m1089 8 c24 -16 157 -119 294 -228 220 -174 250 -202 253
-229 7 -67 37 -64 -639 -61 l-609 3 -32 33 -33 32 0 204 c0 204 0 204 25 231
14 15 34 31 45 35 11 5 162 9 336 9 l316 1 44 -30z m-369 -758 c28 -28 33 -39
33 -82 0 -43 -5 -54 -33 -82 l-32 -33 -130 0 -130 0 -32 33 c-28 28 -33 39
-33 81 0 39 5 55 25 76 38 41 55 45 182 42 l118 -2 32 -33z"/>
<path d="M1076 2744 c-182 -44 -337 -201 -381 -385 -88 -373 251 -712 624
-624 187 44 342 199 386 386 41 176 -10 355 -140 484 -130 130 -312 182 -489
139z m198 -276 c55 -16 138 -99 154 -154 28 -94 8 -169 -63 -239 -101 -102
-229 -102 -330 0 -102 101 -102 229 0 330 70 71 145 90 239 63z"/>
<path d="M3956 2744 c-182 -44 -337 -201 -381 -385 -88 -373 251 -712 624
-624 276 66 451 348 386 624 -66 277 -351 452 -629 385z m198 -276 c86 -26
166 -136 166 -228 0 -124 -116 -240 -240 -240 -124 0 -240 116 -240 240 0 63
23 114 75 165 70 71 145 90 239 63z"/>
</g>
</svg>
