<?xml version="1.0" standalone="no"?>
<!DOCTYPE svg PUBLIC "-//W3C//DTD SVG 20010904//EN"
 "http://www.w3.org/TR/2001/REC-SVG-20010904/DTD/svg10.dtd">
<svg version="1.0" xmlns="http://www.w3.org/2000/svg"
 width="512.000000pt" height="512.000000pt" viewBox="0 0 512.000000 512.000000"
 preserveAspectRatio="xMidYMid meet">

<g transform="translate(0.000000,512.000000) scale(0.100000,-0.100000)"
fill="#000000" stroke="none">
<path d="M1255 4971 c-120 -34 -234 -115 -296 -211 l-31 -48 -112 -3 c-106 -4
-116 -6 -188 -42 -103 -50 -160 -114 -191 -211 -19 -62 -22 -93 -22 -246 0
-195 4 -211 68 -251 28 -18 42 -19 122 -14 109 8 148 23 175 67 19 30 20 43
14 159 -7 136 2 201 37 259 25 40 38 28 39 -35 1 -50 37 -155 75 -215 46 -73
141 -157 220 -195 337 -162 727 64 758 440 3 43 17 37 46 -20 25 -47 26 -58
26 -210 0 -221 12 -237 190 -250 80 -5 94 -4 122 14 64 40 68 56 68 251 0 153
-3 184 -22 246 -31 97 -88 161 -191 211 -72 36 -82 38 -188 42 l-112 3 -31 48
c-116 179 -367 271 -576 211z"/>
<path d="M3670 4868 c-154 -16 -291 -103 -382 -242 -55 -85 -79 -171 -79 -281
0 -134 34 -231 115 -331 104 -128 246 -197 411 -197 292 -1 528 235 528 528 0
138 -45 252 -138 354 -124 134 -272 189 -455 169z"/>
<path d="M994 3830 c-45 -10 -98 -45 -126 -83 -54 -70 -848 -1448 -859 -1489
-35 -130 60 -266 199 -285 58 -8 142 20 183 61 19 19 115 174 214 345 99 171
183 310 188 311 4 0 7 -51 7 -112 0 -87 -20 -255 -85 -719 -93 -668 -92 -654
-32 -717 19 -20 49 -37 74 -44 l43 -10 0 -382 c0 -379 0 -381 24 -432 91 -196
371 -188 446 13 19 50 20 78 20 428 l0 375 94 0 95 0 3 -382 c3 -346 5 -387
22 -426 24 -56 103 -126 161 -142 133 -37 276 47 304 181 7 30 11 191 11 409
l0 359 42 11 c52 14 93 55 108 108 11 36 4 104 -69 630 -73 527 -81 602 -79
717 l3 128 193 -331 c222 -381 264 -443 323 -473 88 -45 215 -19 277 56 15 19
100 159 190 313 89 153 168 287 176 297 12 17 14 -130 13 -1035 -2 -1189 -7
-1111 75 -1185 54 -49 95 -65 168 -65 100 0 175 45 223 135 22 40 22 47 27
721 5 650 6 683 24 703 25 27 80 37 113 20 54 -29 53 -15 53 -718 0 -632 1
-652 21 -705 23 -63 88 -127 146 -147 19 -6 63 -9 98 -7 82 5 147 44 190 112
l30 49 5 1071 5 1071 65 -110 c36 -60 115 -195 175 -298 61 -104 122 -203 137
-222 62 -74 189 -101 275 -56 103 52 157 178 120 281 -21 56 -836 1452 -871
1489 -65 70 -67 71 -491 71 -424 0 -426 -1 -491 -71 -17 -19 -170 -271 -339
-561 -168 -291 -310 -528 -313 -528 -4 1 -160 265 -347 587 -200 345 -355 602
-377 624 -64 65 -92 69 -497 68 -196 -1 -370 -4 -387 -9z"/>
</g>
</svg>
