<?xml version="1.0" standalone="no"?>
<!DOCTYPE svg PUBLIC "-//W3C//DTD SVG 20010904//EN"
 "http://www.w3.org/TR/2001/REC-SVG-20010904/DTD/svg10.dtd">
<svg version="1.0" xmlns="http://www.w3.org/2000/svg"
 width="512.000000pt" height="512.000000pt" viewBox="0 0 512.000000 512.000000"
 preserveAspectRatio="xMidYMid meet">

<g transform="translate(0.000000,512.000000) scale(0.100000,-0.100000)"
fill="#000000" stroke="none">
<path d="M1090 4416 c-323 -72 -577 -294 -682 -596 -16 -47 -238 -1055 -238
-1083 0 -5 35 24 78 64 179 172 424 293 672 334 139 22 3541 23 3647 0 137
-29 254 -80 361 -159 34 -25 62 -41 62 -34 0 30 -164 811 -182 863 -54 164
-172 332 -303 432 -81 62 -219 134 -320 166 l-70 22 -1485 1 c-1144 2 -1498
-1 -1540 -10z m963 -178 c33 -17 46 -39 46 -78 0 -39 -13 -61 -46 -78 -15 -9
-138 -12 -425 -12 -452 0 -487 -4 -609 -65 -129 -65 -244 -209 -279 -347 -7
-25 -23 -57 -36 -69 -46 -43 -121 -23 -145 39 -19 51 52 229 135 339 101 133
256 229 431 268 81 18 895 21 928 3z m384 -12 c39 -34 39 -98 0 -132 -61 -52
-147 -14 -147 66 0 80 86 118 147 66z"/>
<path d="M946 2954 c-462 -84 -815 -426 -923 -897 -12 -51 -17 -118 -16 -232
0 -139 3 -172 25 -256 71 -264 221 -492 429 -649 103 -77 275 -161 404 -197
l100 -28 1965 0 1965 0 51 27 c60 32 118 94 147 157 16 35 22 66 22 126 0 72
-3 86 -34 143 -40 73 -96 124 -173 155 l-53 22 -1915 5 -1915 5 -52 22 c-87
35 -137 69 -196 133 -185 199 -181 478 9 680 71 75 167 129 262 149 37 8 553
11 1713 11 l1661 0 29 -29 c36 -37 38 -79 5 -118 l-24 -28 -1679 -5 -1678 -5
-56 -26 c-251 -118 -260 -448 -16 -577 l52 -27 1700 -3 c1889 -3 1785 -6 1934
64 202 94 336 249 402 464 34 108 34 292 0 400 -66 213 -198 367 -396 461
-154 73 -38 69 -1952 68 -1442 -1 -1731 -3 -1797 -15z"/>
</g>
</svg>
