<?xml version="1.0" standalone="no"?>
<!DOCTYPE svg PUBLIC "-//W3C//DTD SVG 20010904//EN"
 "http://www.w3.org/TR/2001/REC-SVG-20010904/DTD/svg10.dtd">
<svg version="1.0" xmlns="http://www.w3.org/2000/svg"
 width="512.000000pt" height="512.000000pt" viewBox="0 0 512.000000 512.000000"
 preserveAspectRatio="xMidYMid meet">

<g transform="translate(0.000000,512.000000) scale(0.100000,-0.100000)"
fill="#000000" stroke="none">
<path d="M1955 4441 c-61 -37 -79 -67 -83 -134 -2 -35 1 -80 6 -101 10 -34 7
-48 -30 -140 -79 -197 -165 -465 -207 -645 l-19 -84 91 7 c51 4 146 11 212 16
66 5 244 10 395 10 286 0 437 -12 647 -50 93 -17 120 -18 164 -9 68 15 155 7
205 -19 110 -57 172 -194 145 -324 -11 -51 -9 -66 28 -209 77 -299 133 -624
147 -857 l7 -112 262 0 c144 0 311 5 371 12 108 12 198 14 324 7 82 -5 125 17
158 81 21 40 23 53 16 110 -13 112 -9 142 30 245 76 198 132 483 156 789 5 71
10 254 10 406 0 275 0 279 25 332 67 143 -1 256 -155 258 -59 1 -76 6 -220 70
-261 116 -639 208 -1085 265 -343 44 -582 58 -1005 60 -344 1 -400 4 -434 18
-51 23 -123 22 -161 -2z"/>
<path d="M1840 3234 c-469 -40 -1029 -133 -1354 -224 -97 -27 -118 -30 -191
-24 -92 7 -124 -3 -169 -56 -51 -61 -53 -129 -6 -222 22 -44 22 -46 6 -149
-58 -396 -44 -853 38 -1192 29 -119 78 -278 112 -358 20 -49 22 -67 18 -140
-6 -77 -4 -87 17 -118 51 -73 122 -96 225 -71 47 11 64 11 124 -4 138 -33 278
-47 525 -53 655 -15 1471 102 1970 283 93 33 153 49 211 54 98 9 152 36 183
90 28 50 27 112 -2 175 -35 74 -38 105 -22 213 9 58 15 169 15 277 0 297 -40
577 -136 965 -55 221 -56 226 -44 291 14 79 3 132 -36 178 -38 46 -88 57 -183
42 -68 -11 -89 -11 -152 3 -184 40 -280 48 -634 51 -245 3 -400 -1 -515 -11z"/>
</g>
</svg>
