<?xml version="1.0" standalone="no"?>
<!DOCTYPE svg PUBLIC "-//W3C//DTD SVG 20010904//EN"
 "http://www.w3.org/TR/2001/REC-SVG-20010904/DTD/svg10.dtd">
<svg version="1.0" xmlns="http://www.w3.org/2000/svg"
 width="512.000000pt" height="512.000000pt" viewBox="0 0 512.000000 512.000000"
 preserveAspectRatio="xMidYMid meet">

<g transform="translate(0.000000,512.000000) scale(0.100000,-0.100000)"
fill="#000000" stroke="none">
<path d="M2360 4440 c-818 -46 -1583 -384 -2192 -969 -167 -160 -192 -212
-149 -307 50 -110 217 -115 287 -9 9 14 71 75 138 136 550 504 1216 787 1952
829 870 50 1725 -279 2363 -909 132 -130 163 -148 233 -132 53 12 93 45 112
91 38 94 13 142 -156 305 -702 677 -1618 1018 -2588 965z"/>
<path d="M2375 3414 c-403 -42 -744 -153 -1064 -346 -193 -117 -499 -378 -560
-478 -44 -73 -18 -175 55 -217 77 -45 151 -26 229 58 442 474 1087 722 1716
659 413 -42 787 -192 1104 -445 39 -31 122 -107 185 -170 93 -92 123 -115 153
-120 112 -21 197 46 197 157 0 58 -24 94 -139 208 -363 362 -830 595 -1351
675 -101 15 -441 28 -525 19z"/>
<path d="M2359 2380 c-259 -41 -495 -150 -696 -323 -145 -124 -205 -205 -205
-276 0 -63 30 -114 83 -141 83 -43 135 -23 249 94 111 114 194 175 321 235
172 81 243 96 449 96 149 -1 187 -4 256 -23 200 -54 328 -129 486 -282 65 -63
131 -120 146 -127 63 -28 154 0 190 59 28 45 30 131 4 169 -116 171 -367 358
-601 446 -149 56 -254 75 -446 78 -99 2 -205 0 -236 -5z"/>
<path d="M2470 1354 c-168 -45 -282 -221 -251 -388 52 -281 391 -387 588 -184
184 189 94 506 -162 573 -72 18 -103 18 -175 -1z m110 -319 c15 -18 5 -35 -20
-35 -10 0 -22 5 -25 10 -7 11 12 40 25 40 4 0 13 -7 20 -15z"/>
</g>
</svg>
