<?xml version="1.0" standalone="no"?>
<!DOCTYPE svg PUBLIC "-//W3C//DTD SVG 20010904//EN"
 "http://www.w3.org/TR/2001/REC-SVG-20010904/DTD/svg10.dtd">
<svg version="1.0" xmlns="http://www.w3.org/2000/svg"
 width="512.000000pt" height="512.000000pt" viewBox="0 0 512.000000 512.000000"
 preserveAspectRatio="xMidYMid meet">

<g transform="translate(0.000000,512.000000) scale(0.100000,-0.100000)"
fill="#000000" stroke="none">
<path d="M3400 3784 c-787 -68 -1516 -342 -2138 -803 -197 -146 -291 -228
-513 -450 -255 -256 -421 -454 -613 -731 l-86 -125 1907 -3 c1531 -2 1910 0
1920 11 7 7 22 48 33 91 45 177 162 309 319 361 99 32 91 -11 91 529 l0 474
28 7 c15 3 41 18 59 31 38 29 60 26 146 -19 99 -52 166 -143 216 -294 39 -118
60 -247 76 -479 7 -106 18 -201 24 -212 46 -86 195 -91 238 -9 16 32 14 102
-8 322 -63 609 -258 921 -614 980 -22 4 -51 17 -65 30 -14 13 -42 31 -62 40
l-38 15 0 79 c0 110 -6 116 -145 137 -105 15 -656 28 -775 18z m267 -413 c98
-56 115 -115 121 -427 4 -227 3 -244 -16 -288 -37 -81 -114 -111 -332 -128
l-145 -11 -1 -47 c-1 -86 -69 -158 -169 -180 -72 -17 -681 -4 -751 15 -56 16
-120 70 -136 116 -9 27 -14 29 -63 29 -29 0 -91 7 -138 15 -173 30 -267 86
-267 158 0 81 193 309 354 417 179 120 392 197 736 266 370 75 499 93 640 91
111 -2 130 -5 167 -26z"/>
<path d="M2685 2724 c-11 -2 -45 -9 -75 -15 -87 -17 -190 -71 -243 -128 -73
-78 -73 -128 0 -177 28 -18 51 -22 205 -27 95 -4 254 -7 353 -7 152 0 185 3
214 18 51 26 75 63 67 105 -14 75 -164 184 -296 215 -53 13 -196 23 -225 16z"/>
<path d="M1350 3295 c0 -74 2 -135 5 -135 3 0 48 27 100 61 l95 61 0 74 0 74
-100 0 -100 0 0 -135z"/>
<path d="M0 1435 l0 -105 2040 0 2041 0 -3 103 -3 102 -2037 3 -2038 2 0 -105z"/>
</g>
</svg>
