<?xml version="1.0" standalone="no"?>
<!DOCTYPE svg PUBLIC "-//W3C//DTD SVG 20010904//EN"
 "http://www.w3.org/TR/2001/REC-SVG-20010904/DTD/svg10.dtd">
<svg version="1.0" xmlns="http://www.w3.org/2000/svg"
 width="512.000000pt" height="512.000000pt" viewBox="0 0 512.000000 512.000000"
 preserveAspectRatio="xMidYMid meet">

<g transform="translate(0.000000,512.000000) scale(0.100000,-0.100000)"
fill="#000000" stroke="none">
<path d="M921 5104 c-169 -45 -301 -180 -346 -351 -22 -86 -22 -555 1 -577 14
-14 208 -16 1984 -16 1776 0 1970 2 1984 16 23 22 23 491 1 577 -45 173 -178
307 -350 352 -87 22 -3190 22 -3274 -1z m2365 -330 c53 -39 69 -71 69 -134 0
-63 -16 -95 -69 -134 -33 -25 -158 -35 -216 -17 -103 31 -143 169 -73 252 41
48 76 60 175 57 69 -2 92 -7 114 -24z m640 0 c53 -39 69 -71 69 -134 0 -63
-16 -95 -69 -134 -33 -25 -158 -35 -216 -17 -103 31 -143 169 -73 252 41 48
76 60 175 57 69 -2 92 -7 114 -24z"/>
<path d="M576 3824 c-15 -14 -16 -191 -14 -1869 l3 -1854 21 -27 c11 -15 33
-37 48 -48 l27 -21 1899 0 1899 0 27 21 c15 11 37 33 48 48 l21 27 3 1854 c2
1678 1 1855 -14 1869 -14 14 -204 16 -1984 16 -1780 0 -1970 -2 -1984 -16z
m2254 -493 c251 -57 446 -165 631 -350 234 -233 358 -509 375 -837 15 -279
-58 -544 -216 -780 -110 -164 -313 -340 -498 -433 -341 -171 -783 -171 -1127
1 -242 121 -461 340 -583 583 -90 179 -126 343 -126 565 0 226 36 386 132 575
76 153 224 332 356 435 173 132 403 230 619 260 97 14 339 3 437 -19z"/>
<path d="M2410 3029 c-321 -54 -606 -275 -731 -570 -28 -66 -29 -72 -14 -95
18 -28 18 -28 118 -9 117 22 261 29 362 16 157 -19 237 -44 544 -170 214 -89
353 -113 521 -91 118 15 259 55 284 80 19 19 19 22 4 94 -39 178 -122 328
-258 467 -149 151 -314 239 -517 274 -93 16 -227 18 -313 4z"/>
<path d="M1875 2046 c-111 -18 -231 -55 -251 -78 -16 -17 -16 -23 -1 -92 38
-179 122 -330 257 -466 137 -139 280 -220 466 -267 109 -27 334 -24 444 5 289
78 507 258 636 525 45 93 46 97 30 122 -19 29 -28 30 -121 10 -173 -36 -383
-28 -554 21 -47 14 -171 61 -276 104 -104 43 -228 88 -274 100 -105 27 -252
33 -356 16z"/>
</g>
</svg>
