<?xml version="1.0" standalone="no"?>
<!DOCTYPE svg PUBLIC "-//W3C//DTD SVG 20010904//EN"
 "http://www.w3.org/TR/2001/REC-SVG-20010904/DTD/svg10.dtd">
<svg version="1.0" xmlns="http://www.w3.org/2000/svg"
 width="512.000000pt" height="512.000000pt" viewBox="0 0 512.000000 512.000000"
 preserveAspectRatio="xMidYMid meet">

<g transform="translate(0.000000,512.000000) scale(0.100000,-0.100000)"
fill="#000000" stroke="none">
<path d="M2470 5114 c-223 -44 -399 -213 -445 -429 -27 -131 -11 -246 52 -368
168 -324 609 -391 868 -132 99 99 165 252 165 385 0 128 -56 270 -146 369
-102 112 -227 170 -379 176 -49 2 -101 1 -115 -1z"/>
<path d="M457 4290 c-32 -5 -96 -27 -143 -49 -225 -106 -348 -348 -303 -597
45 -249 284 -444 544 -444 68 0 194 33 258 67 115 62 215 188 262 333 25 74
25 214 1 295 -80 271 -342 438 -619 395z"/>
<path d="M4505 4293 c-377 -55 -587 -442 -425 -781 71 -149 198 -252 362 -294
395 -100 760 265 660 660 -27 106 -70 181 -146 258 -67 66 -130 105 -217 133
-58 20 -181 32 -234 24z"/>
<path d="M2171 3824 c-160 -43 -276 -159 -325 -323 -13 -46 -16 -112 -16 -408
l0 -353 90 0 90 0 0 334 0 334 26 31 c20 25 34 31 64 31 22 0 47 -8 61 -19
l24 -19 5 -344 5 -343 365 0 365 0 5 343 5 344 24 19 c14 11 39 19 61 19 30 0
44 -6 64 -31 l26 -31 0 -334 0 -334 90 0 90 0 0 353 c0 296 -3 362 -16 408
-50 167 -166 281 -329 324 -83 21 -693 21 -774 -1z"/>
<path d="M453 3005 c-178 -39 -320 -186 -353 -367 -7 -36 -10 -301 -8 -750 l3
-693 26 -55 c25 -55 83 -130 99 -130 5 0 99 157 210 349 l201 350 -160 280
c-109 189 -161 290 -161 310 0 47 40 86 88 86 22 0 47 -7 56 -14 9 -7 96 -153
193 -324 97 -170 191 -323 207 -340 57 -56 63 -57 463 -57 414 0 412 0 447 75
32 67 5 142 -65 177 -30 16 -67 18 -313 18 -264 0 -282 1 -323 21 -53 26 -64
41 -231 335 -88 155 -132 241 -132 261 0 39 32 80 69 88 55 12 84 -15 158
-145 37 -66 71 -120 76 -120 10 0 8 170 -3 258 -25 191 -169 347 -357 387 -82
18 -109 18 -190 0z"/>
<path d="M4473 3005 c-184 -40 -328 -198 -353 -387 -11 -88 -13 -258 -2 -258
4 0 38 55 76 121 56 100 74 124 102 135 61 26 124 -16 124 -82 0 -16 -59 -130
-151 -291 -129 -225 -157 -268 -192 -291 l-40 -27 -302 -5 c-265 -4 -304 -7
-328 -23 -84 -55 -85 -178 -3 -228 29 -18 57 -19 400 -19 352 0 372 1 412 21
23 11 53 34 66 52 14 18 102 168 196 333 95 166 179 308 188 315 9 7 34 14 56
14 48 0 88 -39 88 -86 0 -20 -52 -121 -161 -310 l-160 -280 201 -350 c111
-192 205 -349 210 -349 16 0 74 75 99 130 l26 55 3 693 c2 449 -1 714 -8 750
-34 183 -175 329 -357 367 -82 18 -109 18 -190 0z"/>
<path d="M1340 2545 c-16 -8 -63 -79 -129 -195 l-104 -182 18 -34 18 -33 291
-3 c286 -3 292 -3 341 -27 63 -32 124 -93 156 -156 35 -71 35 -198 0 -269 -33
-66 -91 -122 -160 -155 l-56 -26 -395 0 c-431 0 -435 0 -532 62 l-38 23 -30
-52 c-16 -29 -169 -294 -339 -588 l-309 -535 1244 -3 c684 -1 1804 -1 2488 0
l1244 3 -309 535 c-170 294 -323 559 -339 588 l-30 52 -39 -24 c-93 -59 -111
-61 -536 -61 l-390 0 -56 26 c-69 33 -127 89 -160 155 -35 71 -35 198 0 269
32 63 93 124 156 156 49 24 55 24 341 27 l291 3 18 33 18 33 -104 183 c-73
128 -112 186 -131 196 -40 21 -2400 20 -2438 -1z"/>
<path d="M0 119 c0 -54 3 -64 29 -90 l29 -29 2502 0 2502 0 29 29 c26 26 29
36 29 90 l0 61 -2560 0 -2560 0 0 -61z"/>
</g>
</svg>
