<?xml version="1.0" standalone="no"?>
<!DOCTYPE svg PUBLIC "-//W3C//DTD SVG 20010904//EN"
 "http://www.w3.org/TR/2001/REC-SVG-20010904/DTD/svg10.dtd">
<svg version="1.0" xmlns="http://www.w3.org/2000/svg"
 width="512.000000pt" height="512.000000pt" viewBox="0 0 512.000000 512.000000"
 preserveAspectRatio="xMidYMid meet">

<g transform="translate(0.000000,512.000000) scale(0.100000,-0.100000)"
fill="#000000" stroke="none">
<path d="M1519 5100 c-20 -10 -43 -29 -51 -42 -9 -13 -203 -653 -433 -1422
-336 -1126 -416 -1405 -411 -1434 6 -41 29 -76 70 -106 27 -21 38 -21 767 -24
l739 -2 0 -520 0 -520 365 0 365 0 0 520 0 520 220 0 220 0 0 -377 0 -378 -33
-15 c-104 -49 -103 -205 3 -261 48 -26 298 -28 360 -3 114 46 117 215 5 268
l-35 17 0 374 0 375 358 0 c326 0 361 2 398 19 50 23 80 60 89 109 9 53 -819
2829 -856 2868 -51 56 -6 54 -1096 54 -971 -1 -1009 -2 -1044 -20z"/>
<path d="M1550 712 c-47 -23 -77 -72 -85 -136 -4 -29 -5 -144 -3 -257 3 -224
9 -246 71 -293 28 -21 30 -21 1025 -24 1113 -2 1040 -7 1089 67 22 33 23 40
23 296 0 255 -1 263 -22 295 -13 18 -39 41 -58 51 -33 18 -80 19 -1020 19
-918 0 -987 -1 -1020 -18z"/>
</g>
</svg>
