<?xml version="1.0" standalone="no"?>
<!DOCTYPE svg PUBLIC "-//W3C//DTD SVG 20010904//EN"
 "http://www.w3.org/TR/2001/REC-SVG-20010904/DTD/svg10.dtd">
<svg version="1.0" xmlns="http://www.w3.org/2000/svg"
 width="512.000000pt" height="512.000000pt" viewBox="0 0 512.000000 512.000000"
 preserveAspectRatio="xMidYMid meet">

<g transform="translate(0.000000,512.000000) scale(0.100000,-0.100000)"
fill="#000000" stroke="none">
<path d="M2321 5110 c-497 -48 -990 -251 -1376 -565 -114 -92 -294 -274 -384
-387 -229 -287 -417 -675 -495 -1023 -49 -218 -60 -325 -60 -575 0 -250 11
-357 60 -575 79 -355 272 -749 509 -1040 92 -114 274 -294 387 -384 287 -229
675 -417 1023 -495 218 -49 325 -60 575 -60 250 0 357 11 575 60 261 58 603
204 828 353 389 259 688 599 893 1016 125 255 196 484 241 775 24 161 24 539
0 700 -45 291 -116 520 -241 775 -134 272 -283 480 -498 692 -211 209 -404
346 -673 478 -252 124 -486 197 -765 240 -126 19 -468 27 -599 15z m419 -511
c483 -45 922 -251 1265 -594 230 -230 387 -482 495 -794 212 -617 101 -1329
-288 -1858 l-68 -92 -1442 1442 -1441 1442 89 65 c402 293 907 434 1390 389z
m1043 -3677 c-124 -101 -406 -248 -588 -307 -744 -238 -1532 -49 -2080 500
-488 488 -697 1177 -560 1849 56 278 177 557 339 779 l49 69 1434 -1434 1433
-1433 -27 -23z"/>
<path d="M2465 4436 c79 -25 132 -60 215 -145 103 -103 162 -192 310 -461 231
-421 328 -561 464 -669 103 -82 245 -140 341 -141 29 0 28 1 -15 22 -61 30
-145 117 -204 212 -27 43 -98 185 -158 314 -149 321 -196 404 -316 555 -58 73
-167 166 -254 215 -103 58 -299 114 -395 111 -25 0 -24 -2 12 -13z"/>
<path d="M2720 2852 c0 -4 97 -104 215 -222 l215 -215 0 223 0 222 -215 0
c-118 0 -215 -3 -215 -8z"/>
<path d="M3390 2516 l0 -345 22 -15 c19 -14 70 -16 355 -16 l333 0 0 360 0
360 -355 0 -355 0 0 -344z"/>
<path d="M1135 2847 c-3 -6 -4 -167 -3 -357 l3 -345 655 -3 655 -2 -360 360
-360 360 -293 0 c-226 0 -294 -3 -297 -13z"/>
</g>
</svg>
