<?xml version="1.0" standalone="no"?>
<!DOCTYPE svg PUBLIC "-//W3C//DTD SVG 20010904//EN"
 "http://www.w3.org/TR/2001/REC-SVG-20010904/DTD/svg10.dtd">
<svg version="1.0" xmlns="http://www.w3.org/2000/svg"
 width="512.000000pt" height="512.000000pt" viewBox="0 0 512.000000 512.000000"
 preserveAspectRatio="xMidYMid meet">

<g transform="translate(0.000000,512.000000) scale(0.100000,-0.100000)"
fill="#000000" stroke="none">
<path d="M802 5103 c-18 -9 -43 -30 -55 -47 -21 -29 -22 -43 -25 -243 l-3
-213 -196 0 c-182 0 -198 -1 -234 -22 -25 -14 -46 -37 -59 -63 -20 -41 -20
-62 -20 -2067 0 -1336 3 -2044 10 -2079 25 -129 118 -257 228 -313 116 -59 34
-56 1647 -56 1298 0 1488 2 1540 15 150 39 261 142 318 294 21 55 22 69 25
846 l3 790 -463 -461 c-350 -350 -475 -468 -513 -487 -176 -87 -590 -267 -639
-277 -68 -14 -154 -6 -206 18 -31 15 -105 18 -642 22 -593 5 -607 5 -634 26
-41 30 -64 65 -70 106 -9 53 25 118 75 146 38 22 44 22 526 22 l487 0 -4 24
c-9 44 11 145 41 211 l30 64 -529 3 c-516 3 -529 3 -556 24 -41 30 -64 65 -70
106 -9 53 25 118 75 146 39 22 41 22 627 22 l589 0 45 98 c30 64 61 115 94
149 l49 53 -691 2 c-680 3 -691 3 -718 24 -41 30 -64 65 -70 106 -9 53 25 118
75 146 l39 22 833 0 834 0 150 150 149 150 -991 2 c-984 3 -992 3 -1019 24
-41 30 -64 65 -70 106 -9 53 25 118 75 146 l39 22 1133 0 1134 0 393 393 393
393 -3 419 c-3 399 -4 422 -23 454 -43 72 -54 76 -275 79 l-199 3 -3 202 c-3
181 -5 206 -23 236 -59 100 -189 106 -252 12 -22 -33 -23 -42 -23 -242 l0
-209 -160 0 -160 0 0 201 c0 165 -3 207 -16 235 -52 110 -211 109 -264 -1 -18
-37 -20 -62 -20 -238 l0 -197 -154 0 -155 0 -3 209 c-3 193 -5 212 -24 237
-70 94 -190 96 -251 5 -22 -33 -23 -42 -23 -242 l0 -209 -160 0 -160 0 0 209
c0 200 -1 209 -23 242 -61 91 -181 89 -251 -5 -19 -25 -21 -44 -24 -237 l-3
-209 -155 0 -154 0 0 197 c0 176 -2 201 -20 238 -36 74 -125 104 -198 68z
m1368 -1665 c54 -37 74 -72 74 -128 0 -54 -18 -87 -68 -124 -27 -21 -37 -21
-646 -21 -609 0 -619 0 -646 21 -41 30 -64 65 -70 106 -9 52 25 117 73 146 38
21 40 22 644 22 l606 0 33 -22z"/>
<path d="M4539 3717 c-75 -21 -128 -60 -244 -176 l-110 -111 213 -212 212
-213 120 120 c149 148 175 194 174 305 0 61 -5 85 -26 125 -67 128 -211 197
-339 162z"/>
<path d="M3208 2453 l-758 -758 -121 -265 c-67 -146 -125 -278 -130 -294 -16
-55 38 -126 96 -126 8 0 140 57 293 126 l278 125 765 765 764 764 -210 210
c-115 115 -212 210 -215 210 -3 0 -346 -341 -762 -757z"/>
</g>
</svg>
