<?xml version="1.0" standalone="no"?>
<!DOCTYPE svg PUBLIC "-//W3C//DTD SVG 20010904//EN"
 "http://www.w3.org/TR/2001/REC-SVG-20010904/DTD/svg10.dtd">
<svg version="1.0" xmlns="http://www.w3.org/2000/svg"
 width="512.000000pt" height="512.000000pt" viewBox="0 0 512.000000 512.000000"
 preserveAspectRatio="xMidYMid meet">

<g transform="translate(0.000000,512.000000) scale(0.100000,-0.100000)"
fill="#000000" stroke="none">
<path d="M2930 3670 l0 -1451 593 3 592 3 57 28 c65 32 115 84 155 159 l28 53
0 1200 0 1200 -26 56 c-34 72 -96 134 -168 168 l-56 26 -587 3 -588 3 0 -1451z"/>
<path d="M2390 4919 c-110 -22 -217 -108 -268 -217 l-27 -57 0 -975 0 -975 28
-60 c37 -79 114 -156 191 -192 61 -28 63 -28 294 -31 l232 -4 0 1261 0 1261
-202 -1 c-112 -1 -223 -5 -248 -10z"/>
<path d="M1640 4165 l0 -175 180 0 180 0 0 175 0 175 -180 0 -180 0 0 -175z"/>
<path d="M834 4244 c-59 -29 -69 -87 -25 -136 l29 -33 359 0 358 0 0 90 0 90
-345 2 c-294 2 -350 0 -376 -13z"/>
<path d="M1640 3170 l0 -170 180 0 180 0 0 170 0 170 -180 0 -180 0 0 -170z"/>
<path d="M817 3240 c-50 -40 -39 -128 19 -150 14 -6 176 -10 375 -10 l349 0 0
90 0 90 -359 0 c-344 0 -359 -1 -384 -20z"/>
<path d="M1481 2439 c-356 -47 -639 -315 -707 -667 -18 -95 -21 -921 -3 -955
48 -94 154 -110 225 -36 l29 30 6 457 c5 495 4 482 65 607 43 88 151 193 245
238 102 48 164 61 273 54 227 -12 413 -152 492 -372 17 -45 19 -102 25 -570 5
-492 7 -524 27 -600 80 -294 296 -514 588 -597 105 -30 304 -32 409 -4 287 76
510 292 597 578 21 69 22 94 26 481 l3 407 -135 0 -135 0 -3 -387 -3 -388 -26
-66 c-51 -132 -119 -217 -231 -289 -89 -58 -173 -82 -288 -82 -239 -1 -437
139 -523 369 -21 56 -22 75 -28 578 -5 487 -7 525 -26 596 -69 248 -238 450
-460 551 -131 59 -306 86 -442 67z"/>
<path d="M3370 1855 l0 -275 275 0 275 0 0 275 0 275 -275 0 -275 0 0 -275z"/>
</g>
</svg>
