<?xml version="1.0" standalone="no"?>
<!DOCTYPE svg PUBLIC "-//W3C//DTD SVG 20010904//EN"
 "http://www.w3.org/TR/2001/REC-SVG-20010904/DTD/svg10.dtd">
<svg version="1.0" xmlns="http://www.w3.org/2000/svg"
 width="512.000000pt" height="512.000000pt" viewBox="0 0 512.000000 512.000000"
 preserveAspectRatio="xMidYMid meet">

<g transform="translate(0.000000,512.000000) scale(0.100000,-0.100000)"
fill="#000000" stroke="none">
<path d="M2525 4258 c-267 -16 -548 -106 -780 -251 -502 -312 -805 -857 -805
-1447 0 -619 328 -1177 875 -1489 413 -235 960 -279 1414 -112 426 158 786
492 965 898 109 247 150 439 150 703 0 264 -41 456 -150 703 -113 256 -325
515 -555 679 -328 234 -704 341 -1114 316z m366 -509 c365 -72 685 -323 849
-666 286 -598 40 -1312 -557 -1612 -382 -192 -853 -163 -1210 75 -516 343
-692 1017 -410 1568 216 424 661 682 1132 659 55 -2 143 -13 196 -24z"/>
<path d="M2536 3599 c-278 -27 -549 -179 -720 -403 -290 -379 -290 -893 0
-1272 101 -134 227 -234 385 -308 119 -56 217 -83 344 -95 436 -40 844 190
1035 584 144 295 144 615 0 910 -193 397 -603 626 -1044 584z"/>
<path d="M16 4191 c-16 -17 -17 -55 -14 -457 3 -413 5 -443 24 -500 31 -90 74
-145 154 -199 80 -52 126 -113 135 -179 4 -23 -28 -390 -74 -860 -45 -451 -81
-840 -81 -866 0 -89 63 -176 153 -209 80 -30 198 10 249 84 44 63 47 110 27
322 -145 1469 -147 1495 -135 1544 18 68 51 112 121 157 33 22 72 53 87 69 35
36 75 125 88 193 6 30 10 234 10 476 0 408 -1 424 -19 434 -27 14 -47 13 -65
-6 -14 -13 -16 -61 -16 -367 0 -303 -2 -356 -16 -375 -17 -24 -62 -30 -82 -10
-9 9 -12 105 -12 370 0 345 -1 359 -20 378 -24 24 -53 26 -74 4 -14 -13 -16
-61 -16 -367 0 -303 -2 -356 -16 -375 -17 -25 -65 -30 -82 -9 -8 9 -12 134
-14 376 -3 346 -4 363 -22 377 -26 18 -51 18 -70 -2 -14 -13 -16 -61 -16 -367
0 -303 -2 -356 -16 -375 -17 -25 -65 -30 -82 -9 -8 9 -12 134 -14 376 -3 346
-4 363 -22 377 -27 19 -50 18 -70 -5z"/>
<path d="M4901 4193 c-15 -14 -52 -128 -148 -458 l-127 -440 0 -145 c-1 -171
12 -230 79 -367 39 -80 73 -123 105 -135 4 -2 -25 -340 -66 -753 -41 -412 -72
-767 -69 -788 16 -110 113 -197 220 -197 90 0 184 68 211 154 17 53 16 64 -58
817 -72 737 -74 764 -56 777 17 13 18 45 18 761 0 738 0 747 -20 769 -25 27
-60 28 -89 5z"/>
</g>
</svg>
