<?xml version="1.0" standalone="no"?>
<!DOCTYPE svg PUBLIC "-//W3C//DTD SVG 20010904//EN"
 "http://www.w3.org/TR/2001/REC-SVG-20010904/DTD/svg10.dtd">
<svg version="1.0" xmlns="http://www.w3.org/2000/svg"
 width="512.000000pt" height="512.000000pt" viewBox="0 0 512.000000 512.000000"
 preserveAspectRatio="xMidYMid meet">

<g transform="translate(0.000000,512.000000) scale(0.100000,-0.100000)"
fill="#000000" stroke="none">
<path d="M1934 4922 c82 -232 280 -444 522 -559 l79 -38 825 0 825 0 89 43
c114 55 198 114 287 205 97 99 184 234 225 349 l13 38 -1439 0 -1439 0 13 -38z"/>
<path d="M1065 4615 l-25 -24 0 -1527 0 -1526 -36 -95 c-42 -114 -100 -334
-110 -420 l-7 -63 -299 0 -299 0 -24 -25 c-16 -15 -25 -36 -25 -55 0 -19 9
-40 25 -55 l24 -25 295 0 295 0 6 -47 c10 -70 34 -143 62 -186 29 -46 108 -87
167 -87 134 0 217 93 241 271 l6 46 102 5 c172 9 306 68 427 188 75 76 121
148 158 252 25 70 26 85 32 348 6 247 8 280 27 327 64 161 181 267 340 308 31
8 70 15 85 15 l28 0 0 -160 0 -160 800 0 800 0 0 160 0 160 -800 0 -800 0 0
80 0 80 800 0 800 0 0 160 0 160 -800 0 -800 0 0 -160 0 -160 -32 0 c-66 -1
-174 -31 -257 -72 -166 -82 -299 -253 -336 -433 -10 -48 -15 -136 -15 -281 0
-243 -7 -292 -55 -390 -80 -164 -250 -264 -450 -264 l-62 0 -7 59 c-10 87 -69
312 -110 423 l-36 96 0 1526 0 1527 -25 24 c-15 16 -36 25 -55 25 -19 0 -40
-9 -55 -25z m83 -3422 c22 -82 42 -185 42 -215 0 -16 -9 -18 -70 -18 -61 0
-70 2 -70 18 0 54 57 292 70 292 4 0 16 -35 28 -77z m46 -425 c-10 -55 -25
-97 -41 -113 -36 -36 -87 -1 -98 69 -4 22 -9 49 -11 59 -5 15 3 17 75 17 l81
0 -6 -32z"/>
<path d="M2560 4000 l0 -160 800 0 800 0 0 160 0 160 -800 0 -800 0 0 -160z"/>
<path d="M2560 3520 l0 -160 800 0 800 0 0 160 0 160 -800 0 -800 0 0 -160z"/>
<path d="M2560 3040 l0 -160 800 0 800 0 0 160 0 160 -800 0 -800 0 0 -160z"/>
<path d="M2560 1600 l0 -160 800 0 800 0 0 160 0 160 -800 0 -800 0 0 -160z"/>
<path d="M2560 1120 l0 -160 800 0 800 0 0 160 0 160 -800 0 -800 0 0 -160z"/>
<path d="M2497 776 c-255 -105 -476 -332 -563 -578 l-13 -38 1439 0 1439 0
-13 38 c-41 115 -128 250 -225 349 -91 92 -175 152 -294 208 l-94 45 -809 0
-809 0 -58 -24z"/>
</g>
</svg>
