<?xml version="1.0" standalone="no"?>
<!DOCTYPE svg PUBLIC "-//W3C//DTD SVG 20010904//EN"
 "http://www.w3.org/TR/2001/REC-SVG-20010904/DTD/svg10.dtd">
<svg version="1.0" xmlns="http://www.w3.org/2000/svg"
 width="512.000000pt" height="512.000000pt" viewBox="0 0 512.000000 512.000000"
 preserveAspectRatio="xMidYMid meet">

<g transform="translate(0.000000,512.000000) scale(0.100000,-0.100000)"
fill="#000000" stroke="none">
<path d="M1595 4834 c-40 -21 -64 -43 -84 -79 -14 -25 -16 -73 -19 -317 l-3
-288 -113 0 c-132 0 -201 -15 -306 -68 -91 -45 -215 -162 -252 -237 -14 -27
-83 -191 -153 -363 -125 -306 -129 -314 -154 -309 -14 2 -79 18 -145 36 -145
38 -177 39 -247 4 -40 -21 -61 -40 -84 -77 -28 -47 -30 -56 -33 -175 -3 -108
-1 -134 17 -181 36 -96 116 -163 218 -181 l60 -11 -34 -90 c-43 -113 -86 -280
-110 -418 -16 -94 -18 -180 -18 -855 l0 -750 22 -41 c34 -63 66 -97 125 -129
l53 -30 228 -3 c261 -4 295 2 370 69 81 71 91 104 97 329 l5 195 1523 3 1522
2 0 -153 c0 -232 19 -302 104 -379 64 -58 113 -68 351 -68 186 0 221 3 264 19
63 24 97 50 137 107 54 76 56 107 51 881 -4 652 -5 705 -24 808 -38 200 -80
349 -137 486 -6 14 3 19 55 28 104 18 184 84 220 181 18 47 20 73 17 181 -3
119 -5 128 -33 175 -35 57 -114 104 -176 104 -33 0 -159 -29 -280 -65 l-46
-13 -128 311 c-70 172 -140 337 -157 368 -63 121 -190 227 -331 277 -59 21
-95 26 -204 30 l-132 4 -3 287 c-3 319 -4 324 -75 378 l-36 28 -946 3 c-844 2
-949 0 -976 -14z m565 -249 l0 -44 -82 -3 -83 -3 -3 -192 -2 -193 -70 0 -70 0
-2 193 -3 192 -82 3 -83 3 0 44 0 45 240 0 240 0 0 -45z m402 -190 l94 -236
84 102 c46 56 83 107 83 113 0 7 -32 60 -72 119 -39 59 -74 114 -78 123 -5 13
6 14 73 12 l78 -3 40 -67 c23 -38 43 -68 46 -68 3 0 23 30 46 68 l40 67 78 3
c67 2 78 1 73 -12 -4 -9 -37 -62 -75 -118 -38 -57 -71 -108 -75 -115 -4 -6 32
-59 84 -122 l90 -111 -80 0 -80 0 -46 75 c-26 41 -51 75 -55 75 -4 0 -29 -34
-55 -75 l-46 -75 -148 0 -147 0 -18 55 -17 56 -96 -3 -96 -3 -20 -52 -20 -53
-68 0 c-38 0 -69 4 -69 9 0 8 177 447 186 463 3 4 43 8 89 8 l83 0 94 -235z
m818 -5 l0 -240 -70 0 -70 0 0 240 0 240 70 0 70 0 0 -240z m428 -493 c62 -32
124 -86 151 -130 32 -53 433 -1038 438 -1076 5 -43 -20 -96 -60 -125 l-28 -21
-1726 -3 c-1155 -1 -1738 1 -1763 8 -23 6 -51 25 -70 47 -53 60 -50 74 186
647 185 450 214 515 252 558 56 61 89 85 155 109 50 18 97 18 1232 16 l1180
-2 53 -28z m-2206 -1965 l33 -32 0 -218 c0 -190 -2 -220 -18 -243 -36 -54 -37
-54 -477 -54 -441 0 -441 0 -473 55 -24 40 -25 425 -2 470 31 60 29 60 487 57
l418 -2 32 -33z m2798 23 c57 -29 61 -53 58 -290 -3 -210 -3 -214 -27 -239
-14 -14 -41 -30 -60 -36 -53 -15 -777 -12 -820 3 -19 7 -44 25 -55 40 -20 27
-21 41 -21 241 0 230 3 248 53 279 24 15 72 16 435 17 345 0 412 -2 437 -15z"/>
<path d="M2353 4428 l-29 -63 54 -3 c30 -2 56 -1 59 1 5 5 -35 106 -47 120 -4
5 -21 -20 -37 -55z"/>
</g>
</svg>
