<?xml version="1.0" standalone="no"?>
<!DOCTYPE svg PUBLIC "-//W3C//DTD SVG 20010904//EN"
 "http://www.w3.org/TR/2001/REC-SVG-20010904/DTD/svg10.dtd">
<svg version="1.0" xmlns="http://www.w3.org/2000/svg"
 width="512.000000pt" height="512.000000pt" viewBox="0 0 512.000000 512.000000"
 preserveAspectRatio="xMidYMid meet">

<g transform="translate(0.000000,512.000000) scale(0.100000,-0.100000)"
fill="#000000" stroke="none">
<path d="M1520 5001 c-44 -66 -80 -123 -80 -127 0 -4 15 -23 34 -44 48 -53 63
-122 42 -192 -14 -48 -27 -64 -114 -145 -69 -64 -108 -109 -130 -150 -111
-210 -71 -459 99 -617 l61 -57 83 123 82 123 -30 34 c-40 46 -57 91 -57 148 0
71 32 125 110 188 140 112 203 240 203 410 0 90 -14 159 -48 226 -28 55 -91
134 -134 168 l-40 32 -81 -120z"/>
<path d="M2270 5001 c-44 -66 -80 -123 -80 -127 0 -4 15 -23 34 -44 48 -53 63
-122 42 -192 -14 -48 -27 -64 -114 -145 -69 -64 -108 -109 -130 -150 -111
-210 -71 -459 99 -617 l61 -57 83 123 82 123 -30 34 c-40 46 -57 91 -57 148 0
71 32 125 110 188 140 112 203 240 203 410 0 90 -14 159 -48 226 -28 55 -91
134 -134 168 l-40 32 -81 -120z"/>
<path d="M3020 5001 c-44 -66 -80 -123 -80 -127 0 -4 15 -23 34 -44 48 -53 63
-122 42 -192 -14 -48 -27 -64 -114 -145 -69 -64 -108 -109 -130 -150 -111
-210 -71 -459 99 -617 l61 -57 83 123 82 123 -30 34 c-40 46 -57 91 -57 148 0
71 32 125 110 188 140 112 203 240 203 410 0 90 -14 159 -48 226 -28 55 -91
134 -134 168 l-40 32 -81 -120z"/>
<path d="M300 2885 c0 -234 5 -469 11 -523 62 -570 355 -1071 821 -1404 l80
-58 1042 0 1042 0 75 51 c88 61 140 102 235 186 l72 63 232 0 c127 0 264 5
303 11 467 70 826 429 896 896 7 42 11 242 11 487 l0 416 -450 0 -450 0 0 150
0 150 -1960 0 -1960 0 0 -425z m4517 -472 c-4 -313 -7 -333 -57 -453 -72 -171
-228 -327 -400 -400 -98 -41 -152 -51 -304 -57 l-149 -6 32 54 c183 309 281
669 281 1031 l0 128 301 0 301 0 -5 -297z"/>
<path d="M0 573 c0 -16 7 -59 15 -98 47 -225 235 -413 460 -460 105 -22 3465
-22 3570 0 225 47 413 235 460 460 8 39 15 82 15 98 l0 27 -2260 0 -2260 0 0
-27z"/>
</g>
</svg>
