<?xml version="1.0" standalone="no"?>
<!DOCTYPE svg PUBLIC "-//W3C//DTD SVG 20010904//EN"
 "http://www.w3.org/TR/2001/REC-SVG-20010904/DTD/svg10.dtd">
<svg version="1.0" xmlns="http://www.w3.org/2000/svg"
 width="512.000000pt" height="512.000000pt" viewBox="0 0 512.000000 512.000000"
 preserveAspectRatio="xMidYMid meet">

<g transform="translate(0.000000,512.000000) scale(0.100000,-0.100000)"
fill="#000000" stroke="none">
<path d="M2265 4775 l-25 -24 0 -376 0 -375 135 0 c131 0 137 1 160 25 l25 24
0 351 0 351 -25 24 c-23 24 -31 25 -135 25 -104 0 -112 -1 -135 -25z"/>
<path d="M2715 4400 l0 -400 83 0 82 0 0 78 c0 77 0 77 -33 92 -38 18 -55 58
-41 98 5 15 23 33 41 42 32 15 33 15 33 90 0 75 -1 75 -33 90 -38 18 -55 58
-41 98 5 15 23 33 41 42 33 15 33 15 33 93 l0 77 -82 0 -83 0 0 -400z"/>
<path d="M3705 4775 c-21 -20 -25 -34 -25 -80 l0 -55 455 0 456 0 24 25 c16
15 25 36 25 55 0 19 -9 40 -25 55 l-24 25 -431 0 -431 0 -24 -25z"/>
<path d="M3920 4320 l0 -160 80 0 80 0 0 160 0 160 -80 0 -80 0 0 -160z"/>
<path d="M324 4369 c3 -17 6 -53 6 -80 l0 -49 630 0 630 0 0 49 c0 27 3 63 6
80 l7 31 -643 0 -642 0 6 -31z"/>
<path d="M340 4058 c-1 -56 131 -3178 136 -3215 l5 -43 160 0 159 0 0 1015 0
1016 25 24 24 25 340 0 339 0 6 73 c6 76 46 1026 46 1090 l0 37 -620 0 -620 0
0 -22z"/>
<path d="M3840 3920 l0 -80 160 0 160 0 0 80 0 80 -160 0 -160 0 0 -80z"/>
<path d="M2240 3360 l0 -480 80 0 80 0 0 480 0 480 -80 0 -80 0 0 -480z"/>
<path d="M3705 3655 c-21 -20 -25 -34 -25 -80 l0 -55 320 0 320 0 0 55 c0 46
-4 60 -25 80 l-24 25 -271 0 -271 0 -24 -25z"/>
<path d="M3360 3347 c-49 -16 -133 -102 -148 -153 -9 -31 -12 -203 -12 -657
l0 -615 208 -4 208 -3 76 -37 c91 -45 147 -103 191 -196 l32 -67 0 -336 0
-335 -36 -72 -35 -72 133 0 c130 0 135 -1 160 -26 25 -25 25 -26 22 -168 -4
-140 -5 -144 -40 -214 l-35 -72 256 0 c303 0 325 5 393 80 24 26 49 66 55 88
17 57 17 2647 0 2704 -6 22 -31 62 -55 88 -74 83 -50 80 -737 79 -408 -1 -612
-5 -636 -12z m835 -251 c152 -41 277 -132 332 -243 40 -82 40 -183 0 -265 -55
-112 -181 -203 -337 -245 -90 -24 -291 -24 -380 0 -157 43 -283 134 -337 245
-40 81 -40 183 0 264 62 126 194 215 377 254 81 17 262 12 345 -10z"/>
<path d="M3864 2945 c-34 -7 -85 -25 -115 -40 -197 -99 -197 -271 0 -370 215
-107 549 -46 631 116 96 186 -210 361 -516 294z"/>
<path d="M960 1520 l0 -1200 160 0 160 0 0 55 c0 67 29 105 80 105 51 0 80
-38 80 -105 l0 -55 118 0 118 0 -35 72 c-35 70 -36 74 -40 214 -3 142 -3 143
22 168 25 25 30 26 160 26 l133 0 -35 72 -36 72 0 335 0 336 32 67 c44 93 100
151 191 196 l76 37 448 3 448 3 0 399 0 400 -800 0 -800 0 0 -55 c0 -67 -29
-105 -80 -105 -51 0 -80 38 -80 105 l0 55 -160 0 -160 0 0 -1200z m455 855
c24 -23 25 -31 25 -135 0 -104 -1 -112 -25 -135 -15 -16 -36 -25 -55 -25 -19
0 -40 9 -55 25 -24 23 -25 31 -25 135 0 104 1 112 25 135 15 16 36 25 55 25
19 0 40 -9 55 -25z m0 -480 c24 -23 25 -31 25 -135 0 -104 -1 -112 -25 -135
-15 -16 -36 -25 -55 -25 -19 0 -40 9 -55 25 -24 23 -25 31 -25 135 0 104 1
112 25 135 15 16 36 25 55 25 19 0 40 -9 55 -25z m0 -480 c24 -23 25 -31 25
-135 0 -104 -1 -112 -25 -135 -15 -16 -36 -25 -55 -25 -19 0 -40 9 -55 25 -24
23 -25 31 -25 135 0 104 1 112 25 135 15 16 36 25 55 25 19 0 40 -9 55 -25z
m0 -480 c24 -23 25 -31 25 -135 0 -104 -1 -112 -25 -135 -15 -16 -36 -25 -55
-25 -19 0 -40 9 -55 25 -24 23 -25 31 -25 135 0 104 1 112 25 135 15 16 36 25
55 25 19 0 40 -9 55 -25z"/>
<path d="M2160 1747 c-49 -16 -133 -102 -148 -153 -17 -57 -17 -571 0 -628 16
-55 99 -138 154 -154 31 -9 215 -12 716 -12 769 0 736 -3 811 80 24 26 49 66
55 88 17 54 17 570 0 624 -6 22 -31 62 -55 88 -75 83 -41 80 -817 79 -466 -1
-692 -5 -716 -12z"/>
<path d="M480 480 l0 -160 160 0 160 0 0 160 0 160 -160 0 -160 0 0 -160z"/>
<path d="M1760 584 c0 -31 5 -75 12 -98 16 -55 99 -138 154 -154 31 -9 267
-12 956 -12 1038 0 975 -5 1051 80 49 55 67 103 67 184 l0 56 -1120 0 -1120 0
0 -56z"/>
</g>
</svg>
