<?xml version="1.0" standalone="no"?>
<!DOCTYPE svg PUBLIC "-//W3C//DTD SVG 20010904//EN"
 "http://www.w3.org/TR/2001/REC-SVG-20010904/DTD/svg10.dtd">
<svg version="1.0" xmlns="http://www.w3.org/2000/svg"
 width="512.000000pt" height="512.000000pt" viewBox="0 0 512.000000 512.000000"
 preserveAspectRatio="xMidYMid meet">

<g transform="translate(0.000000,512.000000) scale(0.100000,-0.100000)"
fill="#000000" stroke="none">
<path d="M942 4848 c-100 -222 -117 -282 -101 -343 23 -82 117 -137 198 -115
98 26 143 110 115 216 -16 62 -143 354 -154 354 -4 0 -30 -51 -58 -112z"/>
<path d="M2516 4670 c-71 -22 -106 -82 -106 -184 l0 -74 -47 -6 c-27 -3 -77
-8 -113 -11 -186 -18 -447 -75 -635 -138 -759 -258 -1342 -827 -1545 -1507
-28 -97 -76 -348 -67 -357 3 -2 27 9 54 26 67 42 211 87 321 102 118 15 290 7
402 -21 176 -43 337 -146 390 -251 25 -47 43 -50 61 -7 23 57 120 142 211 187
113 56 200 79 348 93 106 10 142 9 236 -5 129 -18 246 -55 324 -101 l55 -32 3
-760 c1 -437 -2 -788 -7 -828 -19 -133 -98 -242 -221 -300 -59 -28 -74 -31
-165 -31 -90 0 -106 3 -160 29 -117 58 -207 183 -220 305 -9 91 -23 127 -59
159 -50 43 -104 50 -164 20 -67 -33 -88 -73 -85 -166 7 -256 181 -505 423
-607 189 -80 387 -72 580 23 177 86 310 252 360 448 19 74 20 114 20 890 l0
813 30 21 c186 132 553 167 824 79 152 -50 268 -132 317 -223 13 -25 30 -46
36 -46 7 0 21 17 32 37 41 81 149 165 271 212 263 102 603 87 829 -35 35 -19
65 -33 68 -31 2 3 -3 49 -12 103 -43 273 -134 517 -276 742 -337 534 -890 921
-1554 1086 -118 29 -310 62 -415 71 -41 3 -92 8 -112 11 l-38 6 0 77 c0 64 -4
84 -22 111 -43 63 -109 90 -172 70z"/>
<path d="M308 4547 c-84 -181 -149 -353 -155 -412 -7 -64 9 -115 50 -161 82
-94 215 -105 307 -26 79 67 97 146 59 267 -29 94 -187 455 -199 455 -3 -1 -31
-56 -62 -123z"/>
</g>
</svg>
